<svg enable-background="new 0 0 450 220" height="30" viewBox="28 71 382 75" width="130" xmlns="http://www.w3.org/2000/svg"><path d="m171.59 107.134c-.727 0-1.333.125-1.814.371-.48.245-.866.55-1.156.915-.288.365-.492.75-.61 1.154-.117.408-.187.772-.208 1.092h7.417c-.214-1.155-.594-2.033-1.14-2.631s-1.376-.901-2.489-.901zm-42.043 1.671c-.311-.493-.728-.893-1.251-1.203-.526-.311-1.173-.467-1.942-.467-.771 0-1.414.157-1.927.467-.515.311-.926.71-1.236 1.203-.311.493-.53 1.06-.658 1.702-.128.641-.192 1.293-.192 1.958 0 .664.064 1.311.192 1.943.128.63.348 1.197.658 1.702.31.501.721.903 1.236 1.202.513.3 1.156.451 1.927.451.77 0 1.417-.151 1.942-.451.523-.299.941-.701 1.251-1.202.311-.505.53-1.072.659-1.702.128-.633.192-1.279.192-1.943 0-.665-.064-1.317-.192-1.958-.128-.642-.348-1.209-.659-1.702zm-20.146-6.437c-.408-.248-.878-.413-1.412-.499-.536-.085-1.092-.128-1.67-.128h-3.917v6.87h3.917c.579 0 1.134-.043 1.67-.128.534-.085 1.004-.251 1.412-.496.406-.245.733-.596.979-1.043.247-.451.369-1.038.369-1.768 0-.727-.122-1.316-.369-1.764-.246-.451-.573-.799-.979-1.044zm272.717 2.896c-2.144 0-1.921 2.54-2.01 5.25h3.571c.001-3.055.001-5.25-1.561-5.25zm-22.957 1.163c-.49 0-1.471.388-2.007.687v11.02c.399.131 1.115.217 1.426.217 1.477 0 2.368-1.206 2.368-6.242 0-5.123-.401-5.682-1.787-5.682zm-157.23.707c-.729 0-1.333.125-1.814.371s-.867.55-1.156.915c-.29.365-.492.75-.61 1.154-.119.408-.187.772-.208 1.092h7.417c-.215-1.155-.594-2.033-1.14-2.631s-1.376-.901-2.489-.901zm191.749-35.578h-347.834c-9.671 0-17.513 7.841-17.513 17.512v40.863c0 9.671 7.841 17.513 17.513 17.513h347.834c9.671 0 17.513-7.842 17.513-17.513v-40.863c-.001-9.671-7.842-17.512-17.513-17.512zm-52.826 18.297c2.365 0 4.198 1.853 4.198 4.09 0 2.24-1.833 4.09-4.198 4.09-2.369 0-4.198-1.85-4.198-4.09-.001-2.238 1.828-4.09 4.198-4.09zm-225.658 18.037c-.288.889-.75 1.676-1.379 2.36-.633.684-1.451 1.237-2.457 1.654-1.006.416-2.226.627-3.66.627h-5.297v8.218h-5.041v-22.924h10.338c1.434 0 2.654.208 3.66.625 1.006.419 1.824.969 2.457 1.653.63.687 1.092 1.468 1.379 2.346.29.878.433 1.787.433 2.728 0 .92-.144 1.823-.433 2.713zm19.152 8.172c-.408 1.069-.985 1.983-1.733 2.745-.75.758-1.654 1.343-2.713 1.75-1.061.404-2.243.61-3.547.61-1.307 0-2.484-.206-3.533-.61-1.049-.407-1.947-.992-2.696-1.75-.75-.762-1.327-1.676-1.733-2.745-.408-1.071-.61-2.269-.61-3.597 0-1.326.202-2.532.61-3.612.406-1.081.983-2.001 1.733-2.762.75-.758 1.647-1.348 2.696-1.764 1.049-.419 2.227-.627 3.533-.627 1.304 0 2.487.208 3.547.627 1.059.416 1.964 1.006 2.713 1.764.749.761 1.326 1.682 1.733 2.762.406 1.08.61 2.286.61 3.612 0 1.328-.205 2.525-.61 3.597zm22.537 4.686h-4.688l-2.953-11.14h-.064l-2.826 11.14h-4.719l-5.266-16.598h4.816l3.05 11.267h.065l2.761-11.267h4.431l2.825 11.236h.064l3.05-11.236h4.688zm22.893-7.192h-11.976c.064 1.477.439 2.549 1.123 3.21.686.664 1.67.998 2.954.998.921 0 1.712-.231 2.376-.693.663-.459 1.07-.946 1.22-1.459h4.013c-.642 1.989-1.626 3.415-2.953 4.27-1.328.855-2.933 1.286-4.817 1.286-1.306 0-2.483-.211-3.532-.628-1.049-.416-1.937-1.012-2.665-1.781-.727-.77-1.289-1.69-1.685-2.762-.396-1.069-.594-2.246-.594-3.531 0-1.24.204-2.397.61-3.466.406-1.072.985-1.999 1.734-2.779.748-.781 1.642-1.396 2.681-1.844 1.038-.45 2.188-.675 3.451-.675 1.414 0 2.644.273 3.692.818 1.049.547 1.911 1.28 2.585 2.201.674.92 1.16 1.969 1.46 3.146.302 1.175.408 2.404.323 3.689zm13.388-5.458c-.214-.043-.472-.08-.771-.111s-.588-.048-.867-.048c-.835 0-1.542.14-2.119.416-.579.279-1.043.659-1.396 1.14-.354.482-.604 1.043-.754 1.688-.151.642-.225 1.337-.225 2.087v7.479h-4.559v-16.599h4.334v3.081h.064c.214-.513.503-.989.867-1.428.365-.439.782-.812 1.252-1.123s.974-.553 1.509-.724 1.092-.256 1.669-.256c.301 0 .631.054.996.16zm16.953 5.458h-11.976c.064 1.477.438 2.549 1.123 3.21.686.664 1.67.998 2.955.998.919 0 1.712-.231 2.376-.693.663-.459 1.07-.946 1.22-1.459h4.013c-.643 1.989-1.627 3.415-2.954 4.27s-2.933 1.286-4.816 1.286c-1.305 0-2.482-.211-3.531-.628-1.049-.416-1.937-1.012-2.666-1.781-.728-.77-1.29-1.69-1.686-2.762-.396-1.069-.593-2.246-.593-3.531 0-1.24.203-2.397.61-3.466.406-1.072.983-1.999 1.733-2.779s1.643-1.396 2.681-1.844c1.039-.45 2.189-.675 3.452-.675 1.413 0 2.644.273 3.693.818 1.049.547 1.91 1.28 2.584 2.201.674.92 1.161 1.969 1.46 3.146s.407 2.404.322 3.689zm18.877 7.192h-4.333v-2.118h-.064c-.536.897-1.237 1.545-2.104 1.941s-1.846.596-2.938.596c-1.241 0-2.333-.243-3.275-.725-.942-.481-1.717-1.134-2.328-1.958-.61-.824-1.072-1.771-1.381-2.842-.311-1.069-.466-2.184-.466-3.338 0-1.114.155-2.189.466-3.227.309-1.038.771-1.953 1.381-2.745s1.374-1.431 2.295-1.912c.92-.479 1.991-.721 3.211-.721.984 0 1.921.208 2.809.627.888.416 1.589 1.032 2.104 1.844h.064v-8.346h4.559zm28.479-4.382c-.407 1.104-.938 2.007-1.588 2.711-.655.707-1.388 1.231-2.2 1.573-.815.345-1.636.517-2.475.517-1.22 0-2.309-.194-3.271-.579-.964-.385-1.693-1.037-2.184-1.958h-.065v2.118h-4.334v-22.923h4.559v8.346h.063c.559-.855 1.311-1.482 2.263-1.878.952-.394 1.944-.593 2.97-.593.839 0 1.659.171 2.475.513.812.342 1.545.867 2.2 1.574.65.707 1.181 1.61 1.588 2.713s.61 2.414.61 3.933c-.001 1.519-.204 2.831-.611 3.933zm11.686 6.437c-.493 1.348-1.177 2.312-2.056 2.891-.877.578-2.098.866-3.659.866-.471 0-.936-.018-1.396-.049-.462-.031-.927-.068-1.397-.111v-3.757c.428.043.867.086 1.317.129s.9.054 1.349.031c.598-.062 1.043-.3 1.331-.707.29-.404.433-.855.433-1.348 0-.362-.062-.707-.19-1.026l-5.812-15.572h4.849l3.757 11.365h.065l3.626-11.365h4.72zm23.148 1.271c-2.457 0-5.045-.559-6.789-1.075v-5.897c1.52.388 4.155.989 5.312.989 1.297 0 2.28-.171 2.28-1.291 0-.86-.627-1.248-2.012-1.85l-1.072-.474c-2.007-.903-4.865-2.454-4.865-6.63 0-6.111 4.957-7.448 9.109-7.448 3.127 0 5.18.689 6.251 1.077v5.727c-1.248-.388-3.797-.906-5.312-.906-1.026 0-1.785.259-1.785 1.12 0 .903.622 1.206 2.099 1.85l.892.388c2.098.904 5.003 2.369 5.003 6.672-.001 6.887-5.317 7.748-9.111 7.748zm23.043-6.197c.535 0 2.411-.259 3.038-.345v5.812c-1.297.3-4.155.73-6.031.73-2.411 0-6.921-.257-6.921-6.585v-11.45h-3.124v-5.21h3.124l1.072-5.165 7.413-1.722v6.886h4.467l-1.117 5.21h-3.35v9.985c0 1.552.49 1.854 1.429 1.854zm19.248-10.201c-.85-.217-1.964-.43-3.127-.43-1.34 0-2.365.516-2.813.772v15.626h-8.485v-22.814h6.744l1.251 2.198c.49-1.422 1.83-2.628 3.794-2.628 1.34 0 2.235.259 2.637.476v6.8zm10.495 15.968h-8.485v-22.814h8.485zm15.05.43c-1.071 0-2.186-.3-2.99-.474v8.224h-8.485v-30.995h6.878l1.249 1.422c1.294-1.12 3.124-1.853 5.045-1.853 3.483 0 7.593.949 7.593 11.709-.001 11.796-6.164 11.967-9.29 11.967zm31.439-9.124h-11.476c0 2.454 1.252 2.927 3.35 2.927 2.411 0 5.672-.689 6.921-.903v5.94c-.98.345-3.974 1.16-6.921 1.16-5.313 0-11.789-.815-11.789-11.749 0-9.643 5.091-11.926 10.449-11.926 5.493 0 9.466 2.713 9.466 11.837zm-167.836-6.194c-.311-.481-.712-.872-1.204-1.171-.493-.299-1.113-.45-1.863-.45s-1.381.151-1.894.45-.926.696-1.236 1.188c-.311.493-.536 1.055-.674 1.685-.14.633-.209 1.292-.209 1.975 0 .642.076 1.283.225 1.928.149.641.391 1.214.723 1.716.331.504.748.912 1.251 1.22.503.311 1.109.468 1.814.468.75 0 1.375-.151 1.878-.451.503-.299.904-.701 1.204-1.202.299-.505.513-1.078.642-1.719.129-.642.194-1.306.194-1.99 0-.687-.064-1.345-.194-1.975-.129-.635-.348-1.19-.657-1.672zm28.847-.017c-.322-.49-.721-.88-1.206-1.171-.479-.288-1.062-.433-1.75-.433-.661 0-1.239.146-1.732.433-.49.291-.898.681-1.221 1.171-.318.493-.556 1.061-.706 1.702-.148.645-.223 1.317-.223 2.024 0 .687.074 1.348.223 1.989.15.644.388 1.211.706 1.701.322.493.73.884 1.221 1.175.493.288 1.071.434 1.732.434.688 0 1.271-.146 1.75-.434.485-.291.884-.682 1.206-1.175.322-.49.556-1.058.704-1.701.151-.642.229-1.303.229-1.989 0-.707-.077-1.38-.229-2.024-.149-.642-.382-1.209-.704-1.702z"/><path d="m76.741 103.199h-4.05v-3.15c0-6.519-3.003-10.35-9-10.35s-9 3.831-9 10.35v3.15h-4.5c-1.243 0-2.25 1.457-2.25 2.7v17.55c0 1.237.964 2.561 2.142 2.94l2.692.868c1.178.38 3.153.691 4.391.691h13.05c1.237 0 3.214-.312 4.392-.691l2.692-.868c1.178-.38 2.141-1.703 2.141-2.94v-17.55c0-1.243-1.458-2.7-2.7-2.7zm-17.55-4.05c0-3.251 1.794-4.95 4.5-4.95s4.5 1.699 4.5 4.95v4.05h-9z" fill="#fff"/></svg>