<svg width="32" height="32" viewBox="0 0 32 32" fill="none" xmlns="http://www.w3.org/2000/svg">
<path d="M25 11.0001H7C6.73478 11.0001 6.48043 10.8947 6.29289 10.7072C6.10536 10.5196 6 10.2653 6 10.0001C6 9.73484 6.10536 9.48049 6.29289 9.29295C6.48043 9.10542 6.73478 9.00006 7 9.00006H25C25.2652 9.00006 25.5196 9.10542 25.7071 9.29295C25.8946 9.48049 26 9.73484 26 10.0001C26 10.2653 25.8946 10.5196 25.7071 10.7072C25.5196 10.8947 25.2652 11.0001 25 11.0001ZM7 12.0001H25C25.1974 12.001 25.3901 12.0604 25.5539 12.1708C25.7176 12.2811 25.845 12.4374 25.92 12.6201C25.9966 12.8022 26.0175 13.0029 25.9801 13.1969C25.9428 13.3909 25.8488 13.5694 25.71 13.7101L16.71 22.7101C16.617 22.8038 16.5064 22.8782 16.3846 22.929C16.2627 22.9797 16.132 23.0059 16 23.0059C15.868 23.0059 15.7373 22.9797 15.6154 22.929C15.4936 22.8782 15.383 22.8038 15.29 22.7101L6.29 13.7101C6.15124 13.5694 6.05725 13.3909 6.01987 13.1969C5.9825 13.0029 6.00342 12.8022 6.08 12.6201C6.15502 12.4374 6.28242 12.2811 6.44614 12.1708C6.60986 12.0604 6.80257 12.001 7 12.0001V12.0001Z" fill="#EEEEEE"/>
</svg>
