<svg width="32" height="32" viewBox="0 0 32 32" fill="none" xmlns="http://www.w3.org/2000/svg">
<path d="M7 20.9999L25 20.9999C25.2652 20.9999 25.5196 21.1053 25.7071 21.2928C25.8946 21.4804 26 21.7347 26 21.9999C26 22.2652 25.8946 22.5195 25.7071 22.707C25.5196 22.8946 25.2652 22.9999 25 22.9999L7 22.9999C6.73478 22.9999 6.48043 22.8946 6.29289 22.707C6.10535 22.5195 6 22.2652 6 21.9999C6 21.7347 6.10535 21.4804 6.29289 21.2928C6.48043 21.1053 6.73478 20.9999 7 20.9999ZM25 19.9999L7 19.9999C6.80257 19.999 6.60986 19.9396 6.44614 19.8292C6.28242 19.7189 6.15502 19.5626 6.08 19.3799C6.00342 19.1978 5.9825 18.9971 6.01987 18.8031C6.05724 18.6091 6.15124 18.4306 6.29 18.2899L15.29 9.28994C15.383 9.19621 15.4936 9.12182 15.6154 9.07105C15.7373 9.02028 15.868 8.99414 16 8.99414C16.132 8.99414 16.2627 9.02028 16.3846 9.07105C16.5064 9.12182 16.617 9.19621 16.71 9.28994L25.71 18.2899C25.8488 18.4306 25.9428 18.6091 25.9801 18.8031C26.0175 18.9971 25.9966 19.1978 25.92 19.3799C25.845 19.5626 25.7176 19.7189 25.5539 19.8292C25.3901 19.9396 25.1974 19.999 25 19.9999V19.9999Z" fill="#EEEEEE"/>
</svg>
