<svg width="26" height="25" viewBox="0 0 26 25" fill="none" xmlns="http://www.w3.org/2000/svg">
<path d="M23.1119 9.14304L23.1594 20.3434C23.1614 20.94 22.9265 21.5129 22.5065 21.9366C22.0865 22.3602 21.5155 22.5998 20.919 22.603L17.169 22.6189C16.7712 22.6206 16.389 22.4642 16.1065 22.184C15.824 21.9039 15.6644 21.5231 15.6627 21.1253L15.6452 17.0003C15.6443 16.8014 15.5645 16.611 15.4233 16.4709C15.282 16.3308 15.0909 16.2526 14.892 16.2535L11.142 16.2694C10.9431 16.2702 10.7527 16.3501 10.6126 16.4913C10.4726 16.6326 10.3944 16.8237 10.3952 17.0226L10.4127 21.1475C10.4144 21.5454 10.258 21.9276 9.97789 22.2101C9.69778 22.4926 9.31692 22.6522 8.9191 22.6539L5.16914 22.6698C4.57258 22.6717 3.99963 22.4369 3.57602 22.0169C3.1524 21.5969 2.91273 21.0259 2.90961 20.4294L2.86207 9.22898C2.86153 8.96996 2.92776 8.71517 3.05437 8.4892C3.18097 8.26323 3.36367 8.0737 3.58485 7.9389L12.1878 2.72734C12.4204 2.58641 12.6869 2.51135 12.9588 2.51019C13.2308 2.50904 13.4979 2.58183 13.7317 2.72079L22.3786 7.85914C22.6008 7.9921 22.785 8.1801 22.9135 8.40498C23.0419 8.62987 23.1103 8.88406 23.1119 9.14304Z" fill="#EEEEEE"/>
</svg>
