  <svg width="355" height="261" viewBox="0 0 355 261" fill="none" xmlns="http://www.w3.org/2000/svg">
                    <g clip-path="url(#clip0_10319_51403)">
                        <path
                            d="M318.46 162.051C318.668 160.664 318.807 159.277 318.876 157.891C319.5 136.259 298.353 118.301 271.589 117.816C271.381 117.816 271.173 117.816 270.965 117.816C262.714 96.7386 242.537 79.8212 216.605 72.6106C217.021 73.7199 217.368 74.8986 217.715 76.2159V140.419C222.638 143.816 227.63 147.352 231.166 151.859C233.87 155.325 235.742 159.485 235.742 163.715C235.742 165.933 235.395 167.389 234.702 168.291H231.443H217.715V177.165C218.755 177.789 219.518 178.968 219.518 180.285C219.518 180.909 219.379 181.464 219.102 181.949H217.021V183.475C217.021 184.723 215.981 185.693 214.664 185.693H208.632C207.314 185.693 206.274 184.653 206.274 183.475V181.949H204.194C203.917 181.464 203.778 180.909 203.778 180.285C203.778 178.968 204.472 177.789 205.581 177.165V168.291H194.557C194.557 168.637 194.487 168.915 194.487 169.261C195.319 169.955 195.735 171.619 196.013 172.52C197.053 175.432 197.538 178.552 197.469 181.603C197.469 182.088 197.399 182.643 197.33 183.128L197.261 183.267C197.191 183.613 197.053 183.891 196.914 184.237L196.775 184.584C195.943 185.832 194.487 186.525 192.893 186.525H191.506V189.16C191.506 191.517 189.495 193.459 187.068 193.459H181.66C181.452 193.736 181.244 193.944 180.967 193.944C180.689 193.944 180.481 193.736 180.273 193.459H175.559C173.132 193.459 171.121 191.517 171.121 189.16V186.525C169.318 186.525 167.308 186.387 166.129 185.208C165.158 184.237 165.02 182.92 164.95 181.672C164.881 178.621 165.366 175.501 166.406 172.589C166.753 171.619 167.1 170.024 167.932 169.331C167.862 169.053 167.862 168.707 167.862 168.36H157.531V177.235C158.571 177.859 159.334 179.037 159.334 180.355C159.334 180.979 159.195 181.533 158.918 182.019H156.838V183.544C156.838 184.792 155.798 185.763 154.48 185.763H148.379C147.062 185.763 146.021 184.723 146.021 183.544V182.019H143.941C143.664 181.533 143.525 180.979 143.525 180.355C143.525 179.037 144.219 177.859 145.328 177.235V168.36H131.6H128.341C127.647 167.459 127.301 166.072 127.301 163.784C127.301 159.555 129.173 155.325 131.877 151.928C135.482 147.421 140.405 143.955 145.328 140.557V76.3546C145.467 75.7999 145.605 75.3146 145.744 74.8292C126.954 81.4852 111.562 93.4799 102.548 108.387C101.022 108.248 99.4971 108.109 97.9717 108.109C96.2383 108.109 94.4355 108.109 92.7715 108.248C91.8008 108.179 90.8301 108.109 89.8594 108.109C63.165 107.624 40.9775 124.749 40.3535 146.381C40.2148 151.72 41.3936 156.851 43.6123 161.496C30.6465 163.923 19.5527 170.579 12.8965 179.592C24.9609 182.712 35.3613 187.981 41.8096 194.429C53.874 188.12 73.0107 186.387 88.0566 190.2C102.062 193.736 111.77 201.848 112.602 210.307C114.404 211.208 115.999 212.179 117.455 213.288C131.322 216.547 142 223.896 144.427 232.147C146.021 231.661 147.616 231.245 149.35 230.899L150.944 200.461L150.528 195.123L150.112 198.035L148.448 186.525H154.48L152.816 198.035L152.4 195.123L151.984 199.976L153.44 230.136C161.691 228.888 170.566 229.096 178.748 230.483L180.759 208.851L179.996 203.512L179.233 206.424L176.183 194.915H187.068L184.018 206.424L183.255 203.512L182.561 208.365L184.434 231.731C189.772 233.117 194.626 235.128 198.439 237.693C199.826 232.979 203.986 228.611 209.88 225.144L211.128 200.461L210.712 195.123L210.296 198.035L208.632 186.525H214.664L213 198.035L212.584 195.123L212.168 199.976L213.277 223.341C218.894 220.637 225.758 218.627 232.969 217.725C235.118 215.229 237.822 212.941 241.081 210.861C244.409 202.333 253.354 194.499 265.973 189.368C281.712 182.92 302.929 180.701 321.788 183.613C326.295 178.899 332.882 174.947 340.647 171.827C334.546 167.043 326.919 163.645 318.46 162.051Z"
                            fill="#202020" />
                        <path d="M180.343 212.733L180.689 208.781L180.343 206.285V212.733Z" fill="#005E54" />
                        <path
                            d="M318.46 162.051C318.668 160.664 318.807 159.277 318.876 157.891C319.5 136.259 298.353 118.301 271.589 117.816C271.381 117.816 271.173 117.816 270.965 117.816C262.714 96.7386 242.537 79.8212 216.605 72.6106C217.021 73.7199 217.368 74.8986 217.715 76.2159V140.419C222.638 143.816 227.63 147.352 231.166 151.859C233.87 155.325 235.742 159.485 235.742 163.715C235.742 165.933 235.396 167.389 234.702 168.291H231.443H217.715V177.165C218.755 177.789 219.518 178.968 219.518 180.285C219.518 180.909 219.379 181.464 219.102 181.949H217.021V183.475C217.021 184.723 215.981 185.693 214.664 185.693H208.632C207.314 185.693 206.274 184.653 206.274 183.475V181.949H204.194C203.917 181.464 203.778 180.909 203.778 180.285C203.778 178.968 204.472 177.789 205.581 177.165V168.291H194.557C194.557 168.637 194.487 168.915 194.487 169.261C195.319 169.955 195.735 171.619 196.013 172.52C197.053 175.432 197.538 178.552 197.469 181.603C197.469 182.088 197.399 182.643 197.33 183.128L197.261 183.267C197.191 183.613 197.053 183.891 196.914 184.237L196.775 184.584C195.943 185.832 194.487 186.525 192.893 186.525H191.506V189.16C191.506 191.517 189.495 193.459 187.068 193.459H181.66C181.452 193.736 181.244 193.944 180.967 193.944C180.689 193.944 180.481 193.736 180.273 193.459V194.984H186.93L183.879 206.493L183.116 203.581L182.423 208.435L184.434 231.731C189.772 233.117 194.626 235.128 198.439 237.693C199.826 232.979 203.986 228.611 209.88 225.144L211.128 200.461L210.712 195.123L210.296 198.035L208.632 186.525H214.664L213 198.035L212.584 195.123L212.168 199.976L213.277 223.341C218.894 220.637 225.758 218.627 232.969 217.725C235.118 215.229 237.822 212.941 241.081 210.861C244.409 202.333 253.354 194.499 265.973 189.368C281.712 182.92 302.929 180.701 321.788 183.613C326.295 178.899 332.882 174.947 340.647 171.827C334.546 167.043 326.919 163.645 318.46 162.051Z"
                            fill="#202020" />
                        <path
                            d="M115.098 133.693L116.484 138.616L121.685 138.755L117.386 141.667L118.842 146.589L114.751 143.469L110.521 146.381L112.255 141.528L108.164 138.339L113.364 138.547L115.098 133.693Z"
                            fill="white" />
                        <path
                            d="M258.9 163.229V166.557L262.089 167.597L258.9 168.637V172.035L256.959 169.331L253.769 170.371L255.71 167.597L253.7 164.893L256.889 165.933L258.9 163.229Z"
                            fill="white" />
                        <path
                            d="M107.401 180.077L109.204 182.92L112.463 182.088L110.313 184.653L112.047 187.496L108.927 186.248L106.777 188.813L107.055 185.485L103.935 184.237L107.193 183.405L107.401 180.077Z"
                            fill="white" />
                        <path
                            d="M223.886 93.6879L225.688 96.5306L228.947 95.6986L226.729 98.2639L228.531 101.107L225.411 99.8586L223.262 102.424L223.47 99.0959L220.35 97.8479L223.608 97.0159L223.886 93.6879Z"
                            fill="white" />
                        <path
                            d="M163.84 47.9279H198.786C195.111 30.3173 188.663 18.6693 181.313 18.6693C174.033 18.5999 167.584 30.3173 163.84 47.9279Z"
                            fill="#C97624" />
                        <path d="M198.786 47.9279H163.84V167.181H198.786V47.9279Z" fill="#F59A38" />
                        <path d="M198.786 66.6479H164.326V67.6186H198.786V66.6479Z" fill="#C97624" />
                        <path d="M198.786 90.7066H164.326V91.6772H198.786V90.7066Z" fill="#C97624" />
                        <path opacity="0.25"
                            d="M185.058 66.4399H180.967L181.036 119.757L198.786 137.507V79.9599L185.058 66.4399Z"
                            fill="#2D4155" />
                        <path d="M209.603 88.9733H154.411V93.6879H209.603V88.9733Z" fill="#208953" />
                        <path d="M209.603 120.52H154.411V125.235H209.603V120.52Z" fill="#208953" />
                        <path
                            d="M146.091 180.077V183.405C146.091 184.653 147.131 185.624 148.448 185.624H154.48C155.798 185.624 156.838 184.584 156.838 183.405V180.077H146.091Z"
                            fill="#585E67" />
                        <path
                            d="M145.328 76.2159H157.531C156.214 70.7386 153.995 67.1332 151.43 67.1332C148.864 67.1332 146.576 70.7386 145.328 76.2159Z"
                            fill="#208953" />
                        <path d="M157.531 76.2159H145.328V179.245H157.531V76.2159Z" fill="#7c7c7c" />
                        <path
                            d="M158.918 181.88C159.196 181.395 159.334 180.84 159.334 180.216C159.334 178.205 157.67 176.541 155.66 176.541H147.201C145.19 176.541 143.526 178.205 143.526 180.216C143.526 180.84 143.665 181.395 143.942 181.88H158.918Z"
                            fill="#26AB68" />
                        <path d="M157.531 86.4772H145.328V87.4479H157.531V86.4772Z" fill="#208953" />
                        <path d="M157.531 96.3226H145.328V97.2932H157.531V96.3226Z" fill="#208953" />
                        <path d="M157.531 107.069H145.328V108.04H157.531V107.069Z" fill="#208953" />
                        <path d="M157.531 116.776H145.328V117.747H157.531V116.776Z" fill="#208953" />
                        <path d="M157.531 127.245H145.328V128.216H157.531V127.245Z" fill="#208953" />
                        <path
                            d="M206.274 180.077V183.405C206.274 184.653 207.314 185.624 208.632 185.624H214.664C215.981 185.624 217.021 184.584 217.021 183.405V180.077H206.274Z"
                            fill="#585E67" />
                        <path
                            d="M205.581 76.2159H217.715C216.397 70.7386 214.179 67.1332 211.613 67.1332C209.117 67.1332 206.829 70.7386 205.581 76.2159Z"
                            fill="#208953" />
                        <path d="M217.784 76.2159H205.581V179.245H217.784V76.2159Z" fill="#7c7c7c" />
                        <path
                            d="M219.102 181.88C219.379 181.395 219.518 180.84 219.518 180.216C219.518 178.205 217.854 176.541 215.843 176.541H207.384C205.373 176.541 203.709 178.205 203.709 180.216C203.709 180.84 203.848 181.395 204.125 181.88H219.102Z"
                            fill="#11BF85" />
                        <path d="M217.784 86.4772H205.581V87.4479H217.784V86.4772Z" fill="#208953" />
                        <path d="M217.784 96.3226H205.581V97.2932H217.784V96.3226Z" fill="#208953" />
                        <path d="M217.784 107.069H205.581V108.04H217.784V107.069Z" fill="#208953" />
                        <path d="M217.784 116.776H205.581V117.747H217.784V116.776Z" fill="#208953" />
                        <path d="M217.784 127.245H205.581V128.216H217.784V127.245Z" fill="#208953" />
                        <path opacity="0.25" d="M163.84 80.8612V138.2L172.299 146.659V89.1119L163.84 80.8612Z"
                            fill="#2D4155" />
                        <path opacity="0.25" d="M205.581 91.1919V149.016L217.715 160.595V102.632L205.581 91.1919Z"
                            fill="#2D4155" />
                        <path
                            d="M171.122 182.712V189.021C171.122 191.379 173.132 193.32 175.559 193.32H187.069C189.496 193.32 191.506 191.379 191.506 189.021V182.712H171.122Z"
                            fill="#585E67" />
                        <path
                            d="M191.784 88.9733C193.933 97.7093 196.152 106.515 198.301 115.251C199.133 118.648 200.035 122.115 201.699 125.304C204.75 130.92 210.227 135.149 215.774 139.101C221.321 142.984 227.145 146.797 231.166 151.859C233.871 155.325 235.743 159.485 235.743 163.715C235.743 165.933 235.396 167.389 234.703 168.291H191.714V88.9733H191.784Z"
                            fill="#434B54" />
                        <path
                            d="M193.794 101.245C195.667 108.664 197.608 116.083 199.48 123.432C200.243 126.344 201.005 129.256 202.461 131.891C205.166 136.605 209.95 140.211 214.803 143.539C219.657 146.797 224.788 149.987 228.324 154.355C230.75 157.267 232.345 160.803 232.345 164.408C232.345 166.28 232.068 167.528 231.444 168.221H193.725V101.245H193.794Z"
                            fill="#BFC4C9" />
                        <path
                            d="M171.33 88.9733C169.18 97.7093 166.961 106.515 164.812 115.251C163.98 118.648 163.079 122.115 161.415 125.304C158.364 130.92 152.886 135.149 147.339 139.101C141.792 142.984 135.968 146.797 131.947 151.859C129.243 155.325 127.371 159.485 127.371 163.715C127.371 165.933 127.717 167.389 128.411 168.291H171.399V88.9733H171.33Z"
                            fill="#434B54" />
                        <path
                        d="M169.319 101.245C167.447 108.664 165.505 116.083 163.633 123.432C162.871 126.344 162.108 129.256 160.652 131.891C157.948 136.605 153.164 140.211 148.31 143.539C143.457 146.797 138.326 149.987 134.79 154.355C132.363 157.267 130.768 160.803 130.768 164.408C130.768 166.28 131.045 167.528 131.669 168.221H169.388V101.245H169.319Z"
                        fill="#BFC4C9" />
                    <path
                        d="M181.314 63.7359C173.826 64.1519 167.794 88.6959 167.794 118.925C167.794 120.659 167.794 122.461 167.863 124.125C167.794 124.403 167.794 124.611 167.794 124.888V168.152C167.794 168.499 167.863 168.776 167.863 169.123C167.031 169.816 166.615 171.48 166.338 172.381C165.298 175.293 164.812 178.413 164.882 181.464C164.882 182.712 165.09 184.099 166.06 185C167.308 186.248 169.388 186.317 171.26 186.317C174.589 186.317 177.986 186.317 181.314 186.317V63.7359Z"
                        fill="white" />
                    <path
                        d="M180.967 63.7359C188.456 64.1519 194.488 88.6959 194.488 118.925C194.488 120.659 194.488 122.461 194.418 124.125C194.488 124.403 194.488 124.611 194.488 124.888V168.152C194.488 168.499 194.418 168.776 194.418 169.123C195.25 169.816 195.667 171.48 195.944 172.381C196.984 175.293 197.469 178.413 197.4 181.464C197.4 182.712 197.192 184.099 196.221 185C194.973 186.248 192.893 186.317 191.021 186.317C187.693 186.317 184.295 186.317 180.967 186.317V63.7359Z"
                        fill="#ECF0F1" />
                    <path
                        d="M181.869 83.9119H189.704C188.872 81.9706 185.752 80.5839 182.077 80.5839C182.008 80.5839 181.938 80.5839 181.869 80.5839V83.9119ZM180.136 83.9119H172.301C173.133 81.9706 176.253 80.5839 179.928 80.5839C179.997 80.5839 180.066 80.5839 180.136 80.5839V83.9119Z"
                        fill="#393F47" />
                    <path opacity="0.25"
                        d="M196.776 184.515L197.262 183.128L181.245 152.968L180.968 152.691V186.387H192.894C194.488 186.456 195.944 185.693 196.776 184.515Z"
                        fill="#2D4155" />
                    <path d="M192.963 99.0266H169.181V99.9972H192.963V99.0266Z" fill="#E6E9ED" />
                    <path d="M193.794 120.035H168.348V121.005H193.794V120.035Z" fill="#E6E9ED" />
                    <path d="M193.794 138.547H168.348V139.517H193.794V138.547Z" fill="#E6E9ED" />
                    <path
                        d="M180.968 152.691C180.413 152.76 179.997 153.523 179.997 154.493V192.003C179.997 192.973 180.413 193.736 180.968 193.805V152.691Z"
                        fill="#BFC4C9" />
                    <path
                        d="M180.968 152.691C181.522 152.76 181.938 153.523 181.938 154.493V192.003C181.938 192.973 181.522 193.736 180.968 193.805V152.691Z"
                        fill="#959BA6" />
                </g>
                <defs>
                    <clipPath id="clip0_10319_51403">
                        <rect width="355" height="260" fill="white" transform="translate(0 0.850586)" />
                    </clipPath>
                </defs>
            </svg>